<svg fill="none" height="25" viewBox="0 0 21 25" width="21" xmlns="http://www.w3.org/2000/svg">
    <mask fill="white" id="path-1-inside-1">
        <path clip-rule="evenodd"
            d="M11.3298 0.441973C10.9335 -0.147324 10.0665 -0.147324 9.67017 0.441973L0.314852 14.3539C0.17365 14.5639 0.124644 14.7968 0.14894 15.0172C0.0519041 15.3622 0 15.7262 0 16.1023V20.9966C0 23.2058 1.79086 24.9966 4 24.9966H17C19.2091 24.9966 21 23.2058 21 20.9966V16.1023C21 15.7262 20.9481 15.3622 20.851 15.0171C20.8753 14.7968 20.8263 14.5639 20.6851 14.3539L11.3298 0.441973Z"
            fill-rule="evenodd" />
    </mask>
    <path clip-rule="evenodd"
        d="M11.3298 0.441973C10.9335 -0.147324 10.0665 -0.147324 9.67017 0.441973L0.314852 14.3539C0.17365 14.5639 0.124644 14.7968 0.14894 15.0172C0.0519041 15.3622 0 15.7262 0 16.1023V20.9966C0 23.2058 1.79086 24.9966 4 24.9966H17C19.2091 24.9966 21 23.2058 21 20.9966V16.1023C21 15.7262 20.9481 15.3622 20.851 15.0171C20.8753 14.7968 20.8263 14.5639 20.6851 14.3539L11.3298 0.441973Z"
        fill="white" fill-rule="evenodd" />
    <path
        d="M9.67017 0.441973L10.5 1L10.5 0.999999L9.67017 0.441973ZM11.3298 0.441973L12.1596 -0.116054V-0.116055L11.3298 0.441973ZM0.314852 14.3539L1.14467 14.912L1.14468 14.912L0.314852 14.3539ZM0.14894 15.0172L1.1116 15.2879L1.16422 15.1008L1.14292 14.9076L0.14894 15.0172ZM20.851 15.0171L19.8571 14.9076L19.8358 15.1008L19.8884 15.2878L20.851 15.0171ZM20.6851 14.3539L21.515 13.7959L21.515 13.7959L20.6851 14.3539ZM10.5 0.999999L10.5 1L12.1596 -0.116055C11.3671 -1.29465 9.63291 -1.29465 8.84035 -0.116053L10.5 0.999999ZM1.14468 14.912L10.5 1L8.84035 -0.116054L-0.51497 13.7959L1.14468 14.912ZM1.14292 14.9076C1.14303 14.9086 1.14309 14.9114 1.14226 14.9149C1.14188 14.9165 1.14151 14.9173 1.14152 14.9173C1.14152 14.9173 1.14229 14.9155 1.14467 14.912L-0.51497 13.7959C-0.792568 14.2087 -0.894341 14.6796 -0.845037 15.1268L1.14292 14.9076ZM1 16.1023C1 15.8186 1.0391 15.5457 1.1116 15.2879L-0.813723 14.7465C-0.935292 15.1788 -1 15.6338 -1 16.1023H1ZM1 20.9966V16.1023H-1V20.9966H1ZM4 23.9966C2.34315 23.9966 1 22.6535 1 20.9966H-1C-1 23.758 1.23858 25.9966 4 25.9966V23.9966ZM17 23.9966H4V25.9966H17V23.9966ZM20 20.9966C20 22.6535 18.6569 23.9966 17 23.9966V25.9966C19.7614 25.9966 22 23.758 22 20.9966H20ZM20 16.1023V20.9966H22V16.1023H20ZM19.8884 15.2878C19.9609 15.5457 20 15.8186 20 16.1023H22C22 15.6338 21.9353 15.1788 21.8137 14.7464L19.8884 15.2878ZM19.8553 14.912C19.8577 14.9155 19.8585 14.9173 19.8585 14.9173C19.8585 14.9173 19.8581 14.9165 19.8577 14.9149C19.8569 14.9114 19.857 14.9086 19.8571 14.9076L21.845 15.1267C21.8943 14.6795 21.7925 14.2087 21.515 13.7959L19.8553 14.912ZM10.5 1L19.8553 14.912L21.515 13.7959L12.1596 -0.116054L10.5 1Z"
        fill="#FF5353" mask="url(#path-1-inside-1)" />
</svg>
