<svg fill="none" height="31" viewBox="0 0 21 31" width="21" xmlns="http://www.w3.org/2000/svg">
    <path clip-rule="evenodd"
        d="M11.3189 0.426049C10.9207 -0.142016 10.0793 -0.142016 9.6811 0.426049L0.370299 13.7103C0.21937 13.9257 0.167537 14.1672 0.1941 14.3953C0.0680921 14.784 0 15.1989 0 15.6297V20.0011C0 22.2102 1.79086 24.0011 4 24.0011H17C19.2091 24.0011 21 22.2102 21 20.0011V15.6297C21 15.1989 20.9319 14.784 20.8059 14.3952C20.8324 14.1672 20.7806 13.9256 20.6297 13.7103L11.3189 0.426049Z"
        fill="#FC8686" fill-rule="evenodd" />
    <line stroke="#121212" x1="6" x2="15" y1="17.7452" y2="17.7452" />
    <circle cx="10.5" cy="29.5" fill="#FC8686" r="1.5" />
</svg>
