<svg fill="none" height="24" viewBox="0 0 17 24" width="17" xmlns="http://www.w3.org/2000/svg">
    <path
        d="M8.45717 23.4875L8.45737 23.4875H8.45738L8.48689 23.4858L8.45717 23.4875ZM8.45717 23.4875L8.45683 23.4876L8.45344 23.4878L8.43775 23.4886C8.42339 23.4893 8.40132 23.4903 8.37205 23.4914C8.3135 23.4937 8.22624 23.4965 8.11436 23.4983C7.89049 23.5018 7.56883 23.5012 7.18216 23.4847C6.40616 23.4515 5.381 23.3545 4.36349 23.1029C3.34022 22.8498 2.36439 22.4499 1.65232 21.8367C0.957599 21.2386 0.5 20.428 0.5 19.2834C0.5 16.8084 1.39884 14.8856 2.82379 13.5782C4.25436 12.2656 6.24961 11.5425 8.48689 11.5425C10.7242 11.5425 12.7194 12.2656 14.15 13.5782C15.5749 14.8856 16.4738 16.8084 16.4738 19.2834C16.4738 20.428 16.0162 21.2386 15.3214 21.8367C14.6094 22.4499 13.6336 22.8498 12.6103 23.1029C11.5928 23.3545 10.5676 23.4515 9.79161 23.4847C9.40495 23.5012 9.08328 23.5018 8.85941 23.4983C8.74753 23.4965 8.66027 23.4937 8.60172 23.4914C8.57245 23.4903 8.55038 23.4893 8.53602 23.4886L8.52033 23.4878L8.51694 23.4876L8.5166 23.4875L8.5164 23.4875L8.45717 23.4875Z"
        fill="white" stroke="#FF5353" />
    <path
        d="M12.7838 5.15314C12.7838 7.72183 10.696 9.80627 8.11789 9.80627C5.5398 9.80627 3.45197 7.72183 3.45197 5.15314C3.45197 2.58445 5.5398 0.5 8.11789 0.5C10.696 0.5 12.7838 2.58445 12.7838 5.15314Z"
        fill="white" stroke="#FF5353" />
</svg>
