<svg fill="none" height="14" viewBox="0 0 14 14" width="14" xmlns="http://www.w3.org/2000/svg">
    <path
        d="M7 0C4.06 0 1.66797 2.39203 1.66797 5.33203C1.66797 6.49551 2.03547 7.60102 2.73164 8.52851L6.67133 13.8346C6.68117 13.8474 6.69621 13.8524 6.70715 13.8639C6.90402 14.0747 7.18813 14.0216 7.3284 13.8346C8.46289 12.3208 10.5424 9.49375 11.3419 8.42734C11.3419 8.42734 11.3422 8.42652 11.3425 8.42598L11.3474 8.41941C11.9916 7.51434 12.332 6.44684 12.332 5.33203C12.332 2.39203 9.94 0 7 0ZM7 8.20859C5.41707 8.20859 4.12344 6.91496 4.12344 5.33203C4.12344 3.7491 5.41707 2.45547 7 2.45547C8.58293 2.45547 9.87656 3.7491 9.87656 5.33203C9.87656 6.91496 8.58293 8.20859 7 8.20859Z"
        fill="#BABABA" />
</svg>
