<svg fill="none" height="40" viewBox="0 0 40 40" width="40" xmlns="http://www.w3.org/2000/svg">
    <rect fill="#FFE9E9" height="40" rx="10" width="40" />
    <path
        d="M19.9704 31.1676L19.9702 31.1676L19.97 31.1676L19.9668 31.1678L19.9522 31.1685C19.9388 31.1692 19.9181 31.1702 19.8906 31.1712C19.8356 31.1734 19.7536 31.176 19.6484 31.1777C19.4378 31.181 19.1352 31.1804 18.7714 31.1649C18.0411 31.1336 17.0769 31.0421 16.1203 30.8049C15.158 30.5663 14.2431 30.1899 13.5767 29.6146C12.9276 29.0543 12.5 28.2957 12.5 27.2222C12.5 24.8902 13.3447 23.0806 14.6816 21.8508C16.0241 20.616 17.8975 19.9348 20 19.9348C22.1025 19.9348 23.9759 20.616 25.3184 21.8508C26.6553 23.0806 27.5 24.8902 27.5 27.2222C27.5 28.2957 27.0724 29.0543 26.4233 29.6146C25.7569 30.1899 24.842 30.5663 23.8797 30.8049C22.9231 31.0421 21.9589 31.1336 21.2286 31.1649C20.8648 31.1804 20.5622 31.181 20.3516 31.1777C20.2464 31.176 20.1644 31.1734 20.1094 31.1712C20.0819 31.1702 20.0612 31.1692 20.0478 31.1685L20.0332 31.1678L20.03 31.1676L20.0298 31.1676L20.0296 31.1676L20.0296 31.1676L20 31.1658L19.9704 31.1676L19.9704 31.1676Z"
        fill="#FFE1E1" stroke="#FF5353" />
    <circle cx="19.6522" cy="13.8696" fill="#FFE1E1" r="4.36957" stroke="#FF5353" />
</svg>
